<?xml version="1.0" encoding="UTF-8"?>
<svg id="Layer_2" data-name="Layer 2" xmlns="http://www.w3.org/2000/svg" xmlns:xlink="http://www.w3.org/1999/xlink" viewBox="0 0 267.04 214.34">
  <defs>
    <style>
      .cls-1 {
        fill: url(#linear-gradient);
      }

      .cls-1, .cls-2, .cls-3, .cls-4, .cls-5, .cls-6, .cls-7, .cls-8, .cls-9, .cls-10, .cls-11 {
        stroke-width: 0px;
      }

      .cls-2 {
        fill: url(#linear-gradient-6);
      }

      .cls-3 {
        fill: url(#linear-gradient-11);
      }

      .cls-4 {
        fill: url(#linear-gradient-5);
      }

      .cls-5 {
        fill: url(#linear-gradient-2);
      }

      .cls-6 {
        fill: url(#linear-gradient-7);
      }

      .cls-7 {
        fill: url(#linear-gradient-3);
      }

      .cls-8 {
        fill: url(#linear-gradient-9);
      }

      .cls-9 {
        fill: url(#linear-gradient-8);
      }

      .cls-10 {
        fill: url(#linear-gradient-10);
      }

      .cls-11 {
        fill: url(#linear-gradient-4);
      }
    </style>
    <linearGradient id="linear-gradient" x1="227.45" y1="-7.23" x2="-38.57" y2="246.23" gradientUnits="userSpaceOnUse">
      <stop offset="0" stop-color="#3887fe"/>
      <stop offset=".52" stop-color="#8338ea"/>
      <stop offset="1" stop-color="#ff006c"/>
    </linearGradient>
    <linearGradient id="linear-gradient-2" x1="260.15" y1="-31.4" x2="-9.45" y2="213.09" xlink:href="#linear-gradient"/>
    <linearGradient id="linear-gradient-3" x1="184.64" y1="27.22" x2="20.79" y2="144.3" xlink:href="#linear-gradient"/>
    <linearGradient id="linear-gradient-4" x1="222.11" y1="46.55" x2="58.26" y2="163.64" xlink:href="#linear-gradient"/>
    <linearGradient id="linear-gradient-5" x1="210.8" y1="30.72" x2="46.95" y2="147.81" xlink:href="#linear-gradient"/>
    <linearGradient id="linear-gradient-6" x1="183.11" y1="16.54" x2="131.07" y2="131.6" xlink:href="#linear-gradient"/>
    <linearGradient id="linear-gradient-7" x1="147.88" y1=".61" x2="95.84" y2="115.67" xlink:href="#linear-gradient"/>
    <linearGradient id="linear-gradient-8" x1="113.37" y1="-15" x2="61.34" y2="100.07" xlink:href="#linear-gradient"/>
    <linearGradient id="linear-gradient-9" x1="144.63" y1="34.79" x2="159.78" y2="61.03" gradientTransform="translate(76.41 -93.32) rotate(45)" xlink:href="#linear-gradient"/>
    <linearGradient id="linear-gradient-10" x1="97.98" y1="53.8" x2="113.12" y2="80.04" gradientTransform="translate(142.5 -51.87) rotate(76.42)" xlink:href="#linear-gradient"/>
    <linearGradient id="linear-gradient-11" x1="51.33" y1="76.18" x2="66.48" y2="102.41" gradientTransform="translate(78.35 -15.23) rotate(45)" xlink:href="#linear-gradient"/>
  </defs>
  <g id="OBJECTS">
    <g>
      <g>
        <path class="cls-1" d="m107.83,214.34c-3.06,0-6.15-.13-9.19-.4-13.94-1.23-27.84-5.28-40.21-11.69-12.32-6.37-23.61-15.33-32.64-25.91-9.03-10.58-16.08-23.08-20.38-36.14C1.11,127.24-.68,113.06.23,99.21c.88-13.64,4.55-27.38,10.62-39.76,6-12.25,14.57-23.52,24.77-32.61,10.17-9.09,22.3-16.29,35.07-20.81,11.23-4,23.05-6.02,35.13-6.02,1.67,0,3.36.04,5.03.12,13.52.61,27.1,3.91,39.25,9.56,12.18,5.63,23.45,13.79,32.58,23.6,1.49,1.6,1.42,4.11-.17,5.62-.77.74-1.77,1.11-2.76,1.11s-2.08-.4-2.86-1.2c-8.64-8.83-19.17-16.08-30.45-20.97-11.19-4.87-23.61-7.58-35.93-7.84-.76-.02-1.51-.03-2.26-.03-11.67,0-23.05,2.09-33.81,6.22-11.31,4.32-21.99,11.01-30.87,19.35-8.85,8.28-16.19,18.44-21.21,29.38-5.06,10.96-7.98,23.08-8.46,35.04-.51,12.06,1.33,24.32,5.35,35.49,3.98,11.17,10.29,21.76,18.27,30.66.47.52.98,1.07,1.47,1.6,2.34,2.49,4.96,4.97,7.8,7.36,5.92,4.99,12.33,9.18,19.08,12.44,4.14,2.02,8.48,3.75,12.93,5.13,6.04,1.88,12.28,3.12,18.55,3.7.88.08,1.76.15,2.65.21,1.9.13,3.82.19,5.71.19,21.31,0,42.9-8.23,59.23-22.57,13.74-12.07,23.77-27.93,28.25-44.66.62-2.33,1.11-4.49,1.48-6.62.14-.81.27-1.61.37-2.42,0,0,.04-.36.04-.36.68-5.32.7-10.67.72-16.33.02-7.42.05-15.09,1.7-22.72,1.18-5.41,3.2-10.44,5.99-14.94,3.68-5.95,8.5-10.64,14.3-13.94.14-.08.31-.17.48-.26l.15-.08c.68-.38,1.35-.74,2.04-1.08.28-.14.56-.26.83-.38l.5-.23c.49-.22.97-.44,1.46-.64.34-.14.68-.27,1.02-.4l.27-.1c.52-.19,1.03-.39,1.55-.56.45-.15.9-.29,1.36-.43.51-.15,1.02-.31,1.53-.44.46-.12.92-.24,1.39-.35.51-.12,1.01-.23,1.52-.34.47-.1.95-.19,1.42-.27.5-.09,1-.16,1.5-.24.51-.07.97-.14,1.43-.2.32-.04.64-.07.96-.1v-4.53c0-1.51.85-2.89,2.2-3.57.57-.29,1.18-.43,1.8-.43.84,0,1.68.27,2.38.79l21.83,16.2c1.02.75,1.62,1.95,1.62,3.21s-.6,2.46-1.62,3.21l-21.83,16.2c-.7.52-1.54.79-2.38.79-.61,0-1.23-.14-1.8-.43-1.35-.68-2.2-2.06-2.2-3.57v-4.74c-.12.01-.23.03-.35.05-.2.03-.4.07-.6.11l-.38.07c-.2.04-.4.08-.6.12-.24.05-.49.11-.73.17-.3.08-.56.14-.82.21-.24.07-.48.14-.72.21-.27.08-.53.17-.8.27-.25.09-.45.16-.65.24-.28.11-.55.23-.83.34,0,0-.46.2-.58.25-.3.14-.59.29-.89.45l-.41.21c-10.24,5.59-11.31,17.67-11.61,31.71-.01.49-.03.98-.05,1.47l-.05,1.56c-.02.42-.04.85-.06,1.27,0,0-.08,1.48-.1,1.87-.03.44-.06.88-.09,1.32,0,0-.1,1.37-.14,1.82-.05.56-.1,1.11-.15,1.67-.05.49-.09.97-.15,1.46-.06.56-.12,1.13-.19,1.7-.06.47-.11.93-.17,1.4-.08.58-.15,1.17-.24,1.76-.06.44-.13.87-.2,1.31-.09.61-.19,1.23-.29,1.84l-.23,1.31c-.11.61-.22,1.22-.34,1.82l-.24,1.18c-.12.57-.23,1.15-.36,1.72-.22,1-.47,1.99-.72,2.98l-.08.32c-.21.81-.42,1.61-.65,2.41l-.21.72c-.19.66-.39,1.33-.6,1.99l-.29.91c-.19.6-.39,1.19-.59,1.77-.12.35-.24.69-.36,1.04-.19.54-.39,1.07-.59,1.61,0,0-.32.84-.43,1.14-.17.43-.34.86-.52,1.28l-.2.48c-.13.32-.26.63-.39.94-.09.21-.41.92-.41.92l-.16.37c-.18.42-.37.84-.56,1.25-5.96,12.79-14.86,24.85-25.73,34.89-1.27,1.17-2.41,2.18-3.49,3.11-.03.03-.71.59-.71.59-1.17.98-2.4,1.96-3.79,3.02-3.66,2.8-7.55,5.4-11.59,7.73-1.55.9-2.99,1.7-4.39,2.43-5.51,2.86-11.31,5.28-17.24,7.2-10.49,3.4-21.48,5.13-32.67,5.13Z"/>
        <path class="cls-5" d="m263.04,57.75l-21.83-16.2v8.28c-.52.01-1.04.02-1.56.05-.07,0-.14.01-.21.02-.45.03-.89.07-1.34.11-.46.04-.92.08-1.38.13-.44.05-.89.12-1.33.18-.46.07-.93.14-1.39.22-.44.08-.87.16-1.31.25-.47.1-.93.2-1.4.31-.43.1-.85.21-1.28.32-.47.13-.94.26-1.41.41-.41.13-.83.25-1.24.39-.48.16-.95.34-1.43.52-.39.15-.79.29-1.18.45-.5.2-.99.43-1.48.66-.36.16-.72.32-1.07.49-.63.31-1.24.65-1.86.99-.2.11-.4.21-.6.32-5.41,3.07-9.71,7.44-12.88,12.57-2.58,4.16-4.41,8.82-5.48,13.68-2.76,12.76-.72,25.88-2.36,38.73-.02.12-.02.24-.04.36,0,0,0,0,0,0-.12.86-.25,1.72-.4,2.58-.41,2.34-.94,4.66-1.56,6.96-4.82,18-15.64,34.48-29.48,46.63-18.41,16.17-43.18,25.04-67.83,23.36-.92-.06-1.84-.13-2.76-.22-6.56-.61-13.06-1.91-19.37-3.86-4.62-1.43-9.13-3.22-13.49-5.35-7.13-3.45-13.82-7.85-19.91-12.98-2.85-2.4-5.58-4.96-8.13-7.68-.5-.54-1.02-1.11-1.53-1.66-8.32-9.28-14.85-20.18-19.05-31.98-4.23-11.78-6.12-24.41-5.58-37,.5-12.59,3.53-25.07,8.82-36.55,5.28-11.49,12.84-21.96,22.11-30.63,9.28-8.7,20.25-15.61,32.18-20.16,11.93-4.57,24.77-6.75,37.59-6.45,12.82.27,25.62,3.02,37.44,8.17,11.83,5.12,22.67,12.59,31.72,21.84-8.82-9.48-19.52-17.24-31.34-22.7-11.8-5.48-24.7-8.6-37.76-9.19-13.04-.62-26.26,1.28-38.63,5.68-12.38,4.39-23.91,11.24-33.74,20.03-9.85,8.77-18.01,19.49-23.84,31.39-5.83,11.9-9.36,24.99-10.22,38.26-.87,13.27.77,26.77,4.99,39.47,4.18,12.7,10.91,24.58,19.63,34.8,8.72,10.22,19.44,18.75,31.44,24.95,11.98,6.22,25.22,10.07,38.71,11.26,13.48,1.18,27.34-.35,40.28-4.55,5.71-1.85,11.27-4.17,16.62-6.94,1.43-.75,2.84-1.53,4.24-2.34,3.87-2.24,7.6-4.73,11.16-7.45,1.22-.93,2.43-1.89,3.6-2.87.1-.08.2-.16.3-.25.14-.12.28-.24.43-.36,1.14-.97,2.26-1.98,3.37-3,10.28-9.48,18.92-20.98,24.82-33.64.24-.51.46-1.03.69-1.55.13-.29.26-.58.39-.87.18-.41.34-.82.51-1.23.19-.45.37-.9.55-1.36.14-.36.28-.73.42-1.09.19-.51.38-1.03.57-1.54.12-.33.23-.66.35-.99.19-.56.38-1.13.57-1.7.09-.29.19-.59.28-.88.2-.63.39-1.27.57-1.91.07-.23.14-.46.2-.7.22-.77.42-1.54.62-2.32.03-.1.05-.2.08-.31.24-.95.47-1.91.69-2.87.15-.68.29-1.36.43-2.04.05-.25.11-.5.16-.75.13-.64.24-1.28.35-1.91.07-.37.14-.74.2-1.11.1-.6.19-1.19.29-1.79.06-.42.13-.84.19-1.26.08-.57.16-1.14.23-1.71.06-.45.11-.9.17-1.35.07-.55.13-1.1.19-1.66.05-.47.1-.94.14-1.42.05-.54.1-1.08.15-1.62.04-.48.07-.97.11-1.45.04-.53.08-1.07.11-1.6.03-.48.05-.95.08-1.42.03-.55.06-1.09.08-1.64.01-.34.02-.69.03-1.03.02-.64.05-1.28.06-1.91.27-12.9.97-28.19,13.68-35.13.16-.09.33-.16.49-.25.35-.18.7-.36,1.06-.53.22-.1.45-.19.68-.29.32-.14.64-.27.97-.4.25-.1.5-.19.76-.27.31-.11.62-.21.93-.31.27-.09.55-.17.83-.25.3-.08.59-.16.89-.24.3-.07.59-.15.89-.21.28-.06.57-.11.86-.17.32-.06.63-.12.95-.17.25-.04.51-.07.76-.1.63-.08,1.27-.15,1.91-.2.29-.02.58-.05.88-.06.14,0,.27-.01.41-.02.34-.01.68-.01,1.01-.01v9.04l21.83-16.2Z"/>
        <path class="cls-7" d="m71.15,86.88v62.17c0,7.52-6.09,13.61-13.61,13.61h0c-7.52,0-13.61-6.09-13.61-13.61v-61.74c0-7.49,6.12-14.04,13.62-14.04,3.76,0,7.15,1.52,9.61,3.99,2.46,2.46,3.99,5.87,3.99,9.62Z"/>
        <path class="cls-11" d="m164.46,45.81v103.23c0,7.52-6.09,13.61-13.61,13.61h0c-7.52,0-13.61-6.09-13.61-13.61V46.22c0-7.25,5.5-13.54,12.74-13.99,4.11-.25,7.84,1.32,10.48,3.96,2.46,2.46,3.99,5.85,3.99,9.62Z"/>
        <path class="cls-4" d="m117.81,64.77v84.28c0,7.52-6.09,13.61-13.61,13.61h0c-7.52,0-13.61-6.09-13.61-13.61v-84.28c0-7.53,6.09-13.63,13.61-13.63,3.75,0,7.16,1.51,9.62,3.99,2.47,2.47,3.99,5.87,3.99,9.64Z"/>
        <path class="cls-2" d="m149.99,32.23c-7.24.45-12.74,6.73-12.74,13.99v102.82c0,7.52,6.09,13.61,13.61,13.61V32.23c-.29,0-.57-.01-.86,0Z"/>
        <path class="cls-6" d="m90.59,64.77v84.28c0,7.52,6.09,13.61,13.61,13.61V51.14c-7.51,0-13.61,6.09-13.61,13.63Z"/>
        <path class="cls-9" d="m57.56,73.27c-7.49,0-13.62,6.54-13.62,14.04v61.74c0,7.52,6.09,13.61,13.61,13.61,0,0,0,0,.01,0v-89.38Z"/>
      </g>
      <circle class="cls-8" cx="150.86" cy="45.57" r="11.89" transform="translate(11.96 120.02) rotate(-45)"/>
      <circle class="cls-10" cx="104.2" cy="64.58" r="11.89" transform="translate(16.95 150.7) rotate(-76.42)"/>
      <circle class="cls-3" cx="57.56" cy="86.96" r="11.89" transform="translate(-44.63 66.17) rotate(-45)"/>
    </g>
  </g>
</svg>